<mxfile host="app.diagrams.net" agent="Mozilla/5.0 (Macintosh; Intel Mac OS X 10_15_7) AppleWebKit/537.36 (KHTML, like Gecko) Chrome/141.0.0.0 Safari/537.36" version="28.2.0" pages="2">
  <diagram name="System" id="zVwfzDORoOM-FTjkSdzJ">
    <mxGraphModel dx="3632" dy="1695" grid="1" gridSize="10" guides="1" tooltips="1" connect="1" arrows="1" fold="1" page="1" pageScale="1" pageWidth="827" pageHeight="1169" math="0" shadow="0">
      <root>
        <mxCell id="0" />
        <mxCell id="1" parent="0" />
        <mxCell id="ivQptXM1TXExOYF5JyEC-1" value="Actor" style="shape=umlActor;verticalLabelPosition=bottom;verticalAlign=top;html=1;outlineConnect=0;" parent="1" vertex="1">
          <mxGeometry x="-460" y="490.7699999999999" width="30" height="60" as="geometry" />
        </mxCell>
        <mxCell id="ivQptXM1TXExOYF5JyEC-2" value="" style="points=[];aspect=fixed;html=1;align=center;shadow=0;dashed=0;fillColor=#FF6A00;strokeColor=none;shape=mxgraph.alibaba_cloud.dns_domain_name_system;" parent="1" vertex="1">
          <mxGeometry x="-260" y="489.83" width="60.98" height="60" as="geometry" />
        </mxCell>
        <mxCell id="ivQptXM1TXExOYF5JyEC-3" value="" style="endArrow=classic;startArrow=classic;html=1;rounded=0;entryX=0.094;entryY=0.529;entryDx=0;entryDy=0;entryPerimeter=0;" parent="1" source="ivQptXM1TXExOYF5JyEC-1" target="ivQptXM1TXExOYF5JyEC-2" edge="1">
          <mxGeometry width="50" height="50" relative="1" as="geometry">
            <mxPoint x="172" y="588.9399999999999" as="sourcePoint" />
            <mxPoint x="222" y="538.9399999999998" as="targetPoint" />
          </mxGeometry>
        </mxCell>
        <mxCell id="uSaKlAHMNxB41dpOqZy7-3" value="&lt;b&gt;HTTP 3,&amp;nbsp;&lt;/b&gt;&lt;b style=&quot;color: rgb(63, 63, 63); scrollbar-color: rgb(226, 226, 226) rgb(251, 251, 251);&quot;&gt;&amp;nbsp;HTTP2&lt;/b&gt;&lt;b&gt;&amp;nbsp;(TLS)&lt;/b&gt;" style="edgeLabel;html=1;align=center;verticalAlign=middle;resizable=0;points=[];" parent="ivQptXM1TXExOYF5JyEC-3" vertex="1" connectable="0">
          <mxGeometry x="0.0941" y="3" relative="1" as="geometry">
            <mxPoint as="offset" />
          </mxGeometry>
        </mxCell>
        <mxCell id="ivQptXM1TXExOYF5JyEC-11" value="Temp Data&lt;div&gt;S3&lt;/div&gt;" style="sketch=0;outlineConnect=0;fontColor=#232F3E;gradientColor=none;fillColor=#7AA116;strokeColor=none;dashed=0;verticalLabelPosition=bottom;verticalAlign=top;align=center;html=1;fontSize=12;fontStyle=0;aspect=fixed;pointerEvents=1;shape=mxgraph.aws4.bucket;" parent="1" vertex="1">
          <mxGeometry x="660.0000000000001" y="140" width="46.15" height="48" as="geometry" />
        </mxCell>
        <mxCell id="ivQptXM1TXExOYF5JyEC-12" style="edgeStyle=orthogonalEdgeStyle;rounded=0;orthogonalLoop=1;jettySize=auto;html=1;entryX=0;entryY=0.5;entryDx=0;entryDy=0;entryPerimeter=0;" parent="1" source="6tGMRK2spo7_5NMBX7Hg-89" target="ivQptXM1TXExOYF5JyEC-6" edge="1">
          <mxGeometry relative="1" as="geometry">
            <Array as="points">
              <mxPoint x="209" y="215" />
              <mxPoint x="310" y="215" />
              <mxPoint x="310" y="208" />
            </Array>
            <mxPoint x="310" y="190" as="targetPoint" />
          </mxGeometry>
        </mxCell>
        <mxCell id="6tGMRK2spo7_5NMBX7Hg-35" value="User &lt;span style=&quot;background-color: light-dark(#ffffff, var(--ge-dark-color, #121212)); color: light-dark(rgb(0, 0, 0), rgb(255, 255, 255));&quot;&gt;sends video&lt;/span&gt;" style="edgeLabel;html=1;align=center;verticalAlign=middle;resizable=0;points=[];" parent="ivQptXM1TXExOYF5JyEC-12" vertex="1" connectable="0">
          <mxGeometry x="0.3934" y="2" relative="1" as="geometry">
            <mxPoint as="offset" />
          </mxGeometry>
        </mxCell>
        <mxCell id="uSaKlAHMNxB41dpOqZy7-15" value="&lt;b&gt;GRPC (HTTP2)&lt;/b&gt;" style="edgeLabel;html=1;align=center;verticalAlign=middle;resizable=0;points=[];" parent="ivQptXM1TXExOYF5JyEC-12" vertex="1" connectable="0">
          <mxGeometry x="-0.2877" relative="1" as="geometry">
            <mxPoint as="offset" />
          </mxGeometry>
        </mxCell>
        <mxCell id="6tGMRK2spo7_5NMBX7Hg-21" value="" style="edgeStyle=orthogonalEdgeStyle;rounded=0;orthogonalLoop=1;jettySize=auto;html=1;exitX=0.57;exitY=-0.045;exitDx=0;exitDy=0;exitPerimeter=0;" parent="1" source="ivQptXM1TXExOYF5JyEC-15" target="ivQptXM1TXExOYF5JyEC-25" edge="1">
          <mxGeometry relative="1" as="geometry">
            <Array as="points">
              <mxPoint x="-204" y="60" />
            </Array>
            <mxPoint x="999.6121625394371" y="60" as="targetPoint" />
          </mxGeometry>
        </mxCell>
        <mxCell id="uSaKlAHMNxB41dpOqZy7-19" value="&lt;b&gt;HTTP2 (TLS&lt;/b&gt;&lt;b style=&quot;background-color: light-dark(#ffffff, var(--ge-dark-color, #121212)); color: light-dark(rgb(0, 0, 0), rgb(255, 255, 255));&quot;&gt;)&lt;/b&gt;" style="edgeLabel;html=1;align=center;verticalAlign=middle;resizable=0;points=[];" parent="6tGMRK2spo7_5NMBX7Hg-21" vertex="1" connectable="0">
          <mxGeometry x="-0.8957" y="-1" relative="1" as="geometry">
            <mxPoint y="-1" as="offset" />
          </mxGeometry>
        </mxCell>
        <mxCell id="uSaKlAHMNxB41dpOqZy7-21" value="&lt;b&gt;HTTP2 (TLS&lt;/b&gt;&lt;b style=&quot;color: light-dark(rgb(0, 0, 0), rgb(255, 255, 255));&quot;&gt;)&lt;/b&gt;" style="edgeLabel;html=1;align=center;verticalAlign=middle;resizable=0;points=[];" parent="6tGMRK2spo7_5NMBX7Hg-21" vertex="1" connectable="0">
          <mxGeometry x="0.0825" y="-2" relative="1" as="geometry">
            <mxPoint x="-1" as="offset" />
          </mxGeometry>
        </mxCell>
        <mxCell id="ivQptXM1TXExOYF5JyEC-15" value="CDN" style="image;aspect=fixed;html=1;points=[];align=center;fontSize=12;image=img/lib/azure2/networking/CDN_Profiles.svg;" parent="1" vertex="1">
          <mxGeometry x="-243" y="187.08000000000004" width="68" height="40" as="geometry" />
        </mxCell>
        <mxCell id="ivQptXM1TXExOYF5JyEC-24" style="edgeStyle=orthogonalEdgeStyle;rounded=0;orthogonalLoop=1;jettySize=auto;html=1;exitX=0.5;exitY=0;exitDx=0;exitDy=0;exitPerimeter=0;" parent="1" source="ivQptXM1TXExOYF5JyEC-22" target="ivQptXM1TXExOYF5JyEC-11" edge="1">
          <mxGeometry relative="1" as="geometry">
            <Array as="points">
              <mxPoint x="840" y="228" />
              <mxPoint x="840" y="170" />
              <mxPoint x="830" y="170" />
              <mxPoint x="830" y="174" />
            </Array>
          </mxGeometry>
        </mxCell>
        <mxCell id="6tGMRK2spo7_5NMBX7Hg-39" value="Catch video&lt;div&gt;for processing&lt;/div&gt;" style="edgeLabel;html=1;align=center;verticalAlign=middle;resizable=0;points=[];" parent="ivQptXM1TXExOYF5JyEC-24" vertex="1" connectable="0">
          <mxGeometry x="0.0225" y="3" relative="1" as="geometry">
            <mxPoint x="4" as="offset" />
          </mxGeometry>
        </mxCell>
        <mxCell id="uSaKlAHMNxB41dpOqZy7-28" value="&lt;b&gt;HTTP2 (TLS&lt;/b&gt;&lt;b style=&quot;color: light-dark(rgb(0, 0, 0), rgb(255, 255, 255));&quot;&gt;)&lt;/b&gt;" style="edgeLabel;html=1;align=center;verticalAlign=middle;resizable=0;points=[];" parent="ivQptXM1TXExOYF5JyEC-24" vertex="1" connectable="0">
          <mxGeometry x="-0.6101" y="-1" relative="1" as="geometry">
            <mxPoint y="27" as="offset" />
          </mxGeometry>
        </mxCell>
        <mxCell id="ivQptXM1TXExOYF5JyEC-30" value="Kafka" style="verticalLabelPosition=bottom;html=1;verticalAlign=top;align=center;strokeColor=none;fillColor=#AD902C;shape=mxgraph.azure.queue_generic;pointerEvents=1;" parent="1" vertex="1">
          <mxGeometry x="660" y="250" width="70" height="30" as="geometry" />
        </mxCell>
        <mxCell id="ivQptXM1TXExOYF5JyEC-31" style="edgeStyle=orthogonalEdgeStyle;rounded=0;orthogonalLoop=1;jettySize=auto;html=1;exitX=1;exitY=0.5;exitDx=0;exitDy=0;exitPerimeter=0;entryX=0;entryY=0.5;entryDx=0;entryDy=0;entryPerimeter=0;" parent="1" source="ivQptXM1TXExOYF5JyEC-6" target="ivQptXM1TXExOYF5JyEC-30" edge="1">
          <mxGeometry relative="1" as="geometry">
            <Array as="points">
              <mxPoint x="453" y="205" />
              <mxPoint x="560" y="205" />
              <mxPoint x="560" y="265" />
            </Array>
          </mxGeometry>
        </mxCell>
        <mxCell id="6tGMRK2spo7_5NMBX7Hg-38" value="Send message&lt;div&gt;for video processing&lt;/div&gt;" style="edgeLabel;html=1;align=center;verticalAlign=middle;resizable=0;points=[];" parent="ivQptXM1TXExOYF5JyEC-31" vertex="1" connectable="0">
          <mxGeometry x="0.2647" y="1" relative="1" as="geometry">
            <mxPoint x="-11" y="-27" as="offset" />
          </mxGeometry>
        </mxCell>
        <mxCell id="uSaKlAHMNxB41dpOqZy7-29" value="&lt;b&gt;TCP (TLS)&lt;/b&gt;" style="edgeLabel;html=1;align=center;verticalAlign=middle;resizable=0;points=[];" parent="ivQptXM1TXExOYF5JyEC-31" vertex="1" connectable="0">
          <mxGeometry x="0.3419" y="-1" relative="1" as="geometry">
            <mxPoint as="offset" />
          </mxGeometry>
        </mxCell>
        <mxCell id="ivQptXM1TXExOYF5JyEC-25" value="Primary&lt;div&gt;S3&lt;/div&gt;" style="sketch=0;outlineConnect=0;fontColor=#232F3E;gradientColor=none;fillColor=#FF9933;strokeColor=none;dashed=0;verticalLabelPosition=bottom;verticalAlign=top;align=center;html=1;fontSize=12;fontStyle=0;aspect=fixed;pointerEvents=1;shape=mxgraph.aws4.bucket;" parent="1" vertex="1">
          <mxGeometry x="980" y="20" width="65.38" height="68" as="geometry" />
        </mxCell>
        <mxCell id="6tGMRK2spo7_5NMBX7Hg-2" style="edgeStyle=orthogonalEdgeStyle;rounded=0;orthogonalLoop=1;jettySize=auto;html=1;exitX=1;exitY=0.5;exitDx=0;exitDy=0;exitPerimeter=0;" parent="1" source="ivQptXM1TXExOYF5JyEC-22" target="ivQptXM1TXExOYF5JyEC-25" edge="1">
          <mxGeometry relative="1" as="geometry">
            <Array as="points">
              <mxPoint x="860" y="242" />
              <mxPoint x="1010" y="242" />
            </Array>
          </mxGeometry>
        </mxCell>
        <mxCell id="6tGMRK2spo7_5NMBX7Hg-56" value="Send Video&lt;div&gt;Parts&lt;/div&gt;" style="edgeLabel;html=1;align=center;verticalAlign=middle;resizable=0;points=[];" parent="6tGMRK2spo7_5NMBX7Hg-2" vertex="1" connectable="0">
          <mxGeometry x="-0.2517" y="-1" relative="1" as="geometry">
            <mxPoint y="-1" as="offset" />
          </mxGeometry>
        </mxCell>
        <mxCell id="uSaKlAHMNxB41dpOqZy7-23" value="&lt;b&gt;HTTP2 (TLS&lt;/b&gt;&lt;b style=&quot;color: light-dark(rgb(0, 0, 0), rgb(255, 255, 255));&quot;&gt;)&lt;/b&gt;" style="edgeLabel;html=1;align=center;verticalAlign=middle;resizable=0;points=[];" parent="6tGMRK2spo7_5NMBX7Hg-2" vertex="1" connectable="0">
          <mxGeometry x="0.0046" y="-2" relative="1" as="geometry">
            <mxPoint x="1" as="offset" />
          </mxGeometry>
        </mxCell>
        <mxCell id="6tGMRK2spo7_5NMBX7Hg-34" style="edgeStyle=orthogonalEdgeStyle;rounded=0;orthogonalLoop=1;jettySize=auto;html=1;entryX=-0.006;entryY=0.59;entryDx=0;entryDy=0;entryPerimeter=0;" parent="1" source="6tGMRK2spo7_5NMBX7Hg-89" target="5" edge="1">
          <mxGeometry relative="1" as="geometry">
            <Array as="points">
              <mxPoint x="209" y="1093" />
            </Array>
            <mxPoint x="460" y="1100" as="targetPoint" />
          </mxGeometry>
        </mxCell>
        <mxCell id="uSaKlAHMNxB41dpOqZy7-7" value="&lt;b&gt;HTTP2&lt;/b&gt;&lt;b style=&quot;color: rgb(63, 63, 63); background-color: light-dark(#ffffff, var(--ge-dark-color, #121212));&quot;&gt;&amp;nbsp;(TLS)&lt;/b&gt;" style="edgeLabel;html=1;align=center;verticalAlign=middle;resizable=0;points=[];" parent="6tGMRK2spo7_5NMBX7Hg-34" vertex="1" connectable="0">
          <mxGeometry x="-0.1827" y="-3" relative="1" as="geometry">
            <mxPoint x="-1" y="59" as="offset" />
          </mxGeometry>
        </mxCell>
        <mxCell id="6tGMRK2spo7_5NMBX7Hg-18" style="edgeStyle=orthogonalEdgeStyle;rounded=0;orthogonalLoop=1;jettySize=auto;html=1;" parent="1" source="6tGMRK2spo7_5NMBX7Hg-89" target="6tGMRK2spo7_5NMBX7Hg-8" edge="1">
          <mxGeometry relative="1" as="geometry">
            <mxPoint x="240" y="460" as="sourcePoint" />
            <mxPoint x="548.3400000000001" y="448.9000000000003" as="targetPoint" />
            <Array as="points">
              <mxPoint x="276" y="519" />
              <mxPoint x="276" y="520" />
            </Array>
          </mxGeometry>
        </mxCell>
        <mxCell id="6tGMRK2spo7_5NMBX7Hg-41" value="Get video meta,&lt;div&gt;views,&amp;nbsp;&lt;span style=&quot;background-color: light-dark(#ffffff, var(--ge-dark-color, #121212)); color: light-dark(rgb(0, 0, 0), rgb(255, 255, 255));&quot;&gt;likes,&amp;nbsp;&lt;/span&gt;&lt;/div&gt;&lt;div&gt;&lt;span style=&quot;background-color: light-dark(#ffffff, var(--ge-dark-color, #121212)); color: light-dark(rgb(0, 0, 0), rgb(255, 255, 255));&quot;&gt;comments&lt;/span&gt;&lt;/div&gt;" style="edgeLabel;html=1;align=center;verticalAlign=middle;resizable=0;points=[];" parent="6tGMRK2spo7_5NMBX7Hg-18" vertex="1" connectable="0">
          <mxGeometry x="-0.4387" relative="1" as="geometry">
            <mxPoint x="108" y="-5" as="offset" />
          </mxGeometry>
        </mxCell>
        <mxCell id="uSaKlAHMNxB41dpOqZy7-14" value="&lt;b&gt;GRPC (HTTP2)&lt;/b&gt;" style="edgeLabel;html=1;align=center;verticalAlign=middle;resizable=0;points=[];" parent="6tGMRK2spo7_5NMBX7Hg-18" vertex="1" connectable="0">
          <mxGeometry x="-0.1552" y="-2" relative="1" as="geometry">
            <mxPoint as="offset" />
          </mxGeometry>
        </mxCell>
        <mxCell id="6tGMRK2spo7_5NMBX7Hg-28" style="edgeStyle=orthogonalEdgeStyle;rounded=0;orthogonalLoop=1;jettySize=auto;html=1;exitX=0.5;exitY=1;exitDx=0;exitDy=0;exitPerimeter=0;" parent="1" source="ivQptXM1TXExOYF5JyEC-6" target="6tGMRK2spo7_5NMBX7Hg-8" edge="1">
          <mxGeometry relative="1" as="geometry">
            <Array as="points">
              <mxPoint x="425" y="233" />
              <mxPoint x="425" y="240" />
              <mxPoint x="470" y="240" />
              <mxPoint x="470" y="380" />
              <mxPoint x="539" y="380" />
            </Array>
            <mxPoint x="580" y="480" as="targetPoint" />
          </mxGeometry>
        </mxCell>
        <mxCell id="6tGMRK2spo7_5NMBX7Hg-40" value="Send some&lt;div&gt;video meta&lt;/div&gt;" style="edgeLabel;html=1;align=center;verticalAlign=middle;resizable=0;points=[];" parent="6tGMRK2spo7_5NMBX7Hg-28" vertex="1" connectable="0">
          <mxGeometry x="-0.0905" relative="1" as="geometry">
            <mxPoint as="offset" />
          </mxGeometry>
        </mxCell>
        <mxCell id="uSaKlAHMNxB41dpOqZy7-17" value="&lt;b&gt;GRPC (HTTP2)&lt;/b&gt;" style="edgeLabel;html=1;align=center;verticalAlign=middle;resizable=0;points=[];" parent="6tGMRK2spo7_5NMBX7Hg-28" vertex="1" connectable="0">
          <mxGeometry x="0.1094" y="-1" relative="1" as="geometry">
            <mxPoint y="1" as="offset" />
          </mxGeometry>
        </mxCell>
        <mxCell id="6tGMRK2spo7_5NMBX7Hg-29" value="Send some&lt;div&gt;video meta&lt;/div&gt;" style="edgeStyle=orthogonalEdgeStyle;rounded=0;orthogonalLoop=1;jettySize=auto;html=1;exitX=0.5;exitY=1;exitDx=0;exitDy=0;exitPerimeter=0;entryX=0.5;entryY=0;entryDx=0;entryDy=0;entryPerimeter=0;" parent="1" source="ivQptXM1TXExOYF5JyEC-22" target="MMesEljA1Y2_ANh_13ck-1" edge="1">
          <mxGeometry x="0.4295" relative="1" as="geometry">
            <mxPoint x="610" y="480" as="targetPoint" />
            <Array as="points">
              <mxPoint x="839" y="350" />
              <mxPoint x="950" y="350" />
              <mxPoint x="950" y="410" />
            </Array>
            <mxPoint as="offset" />
          </mxGeometry>
        </mxCell>
        <mxCell id="uSaKlAHMNxB41dpOqZy7-18" value="&lt;b&gt;TCP (TLS)&lt;/b&gt;" style="edgeLabel;html=1;align=center;verticalAlign=middle;resizable=0;points=[];" parent="6tGMRK2spo7_5NMBX7Hg-29" vertex="1" connectable="0">
          <mxGeometry x="-0.2161" y="-2" relative="1" as="geometry">
            <mxPoint x="2" y="-6" as="offset" />
          </mxGeometry>
        </mxCell>
        <mxCell id="6tGMRK2spo7_5NMBX7Hg-37" style="edgeStyle=orthogonalEdgeStyle;rounded=0;orthogonalLoop=1;jettySize=auto;html=1;exitX=1;exitY=0.51;exitDx=0;exitDy=0;exitPerimeter=0;entryX=0;entryY=0.5;entryDx=0;entryDy=0;entryPerimeter=0;" parent="1" source="ivQptXM1TXExOYF5JyEC-30" target="ivQptXM1TXExOYF5JyEC-22" edge="1">
          <mxGeometry relative="1" as="geometry" />
        </mxCell>
        <mxCell id="uSaKlAHMNxB41dpOqZy7-30" value="&lt;b&gt;TCP (TLS)&lt;/b&gt;" style="edgeLabel;html=1;align=center;verticalAlign=middle;resizable=0;points=[];" parent="6tGMRK2spo7_5NMBX7Hg-37" vertex="1" connectable="0">
          <mxGeometry x="-0.114" y="-1" relative="1" as="geometry">
            <mxPoint as="offset" />
          </mxGeometry>
        </mxCell>
        <mxCell id="6tGMRK2spo7_5NMBX7Hg-45" value="" style="group" parent="1" vertex="1" connectable="0">
          <mxGeometry x="309.99999999999994" y="410" width="60" height="50" as="geometry" />
        </mxCell>
        <mxCell id="6tGMRK2spo7_5NMBX7Hg-43" value="" style="image;sketch=0;aspect=fixed;html=1;points=[];align=center;fontSize=12;image=img/lib/mscae/Cache_Redis_Product.svg;" parent="6tGMRK2spo7_5NMBX7Hg-45" vertex="1">
          <mxGeometry x="10" width="50" height="42" as="geometry" />
        </mxCell>
        <mxCell id="6tGMRK2spo7_5NMBX7Hg-44" value="Redis" style="image;sketch=0;aspect=fixed;html=1;points=[];align=center;fontSize=12;image=img/lib/mscae/Cache_Redis_Product.svg;" parent="6tGMRK2spo7_5NMBX7Hg-45" vertex="1">
          <mxGeometry y="8" width="50" height="42" as="geometry" />
        </mxCell>
        <mxCell id="6tGMRK2spo7_5NMBX7Hg-46" style="edgeStyle=orthogonalEdgeStyle;rounded=0;orthogonalLoop=1;jettySize=auto;html=1;entryX=0.908;entryY=0.482;entryDx=0;entryDy=0;entryPerimeter=0;exitX=0.02;exitY=0.02;exitDx=0;exitDy=0;exitPerimeter=0;" parent="1" source="6tGMRK2spo7_5NMBX7Hg-8" target="6tGMRK2spo7_5NMBX7Hg-43" edge="1">
          <mxGeometry relative="1" as="geometry">
            <Array as="points">
              <mxPoint x="520" y="491" />
              <mxPoint x="520" y="435" />
              <mxPoint x="470" y="435" />
              <mxPoint x="470" y="430" />
            </Array>
            <mxPoint x="570" y="500" as="sourcePoint" />
          </mxGeometry>
        </mxCell>
        <mxCell id="uSaKlAHMNxB41dpOqZy7-31" value="&lt;b&gt;RESP/TCP (TLS)&lt;/b&gt;" style="edgeLabel;html=1;align=center;verticalAlign=middle;resizable=0;points=[];" parent="6tGMRK2spo7_5NMBX7Hg-46" vertex="1" connectable="0">
          <mxGeometry x="0.2513" y="-4" relative="1" as="geometry">
            <mxPoint as="offset" />
          </mxGeometry>
        </mxCell>
        <mxCell id="6tGMRK2spo7_5NMBX7Hg-54" style="edgeStyle=orthogonalEdgeStyle;rounded=0;orthogonalLoop=1;jettySize=auto;html=1;exitX=0.946;exitY=0.342;exitDx=0;exitDy=0;exitPerimeter=0;" parent="1" source="6tGMRK2spo7_5NMBX7Hg-16" target="ivQptXM1TXExOYF5JyEC-25" edge="1">
          <mxGeometry relative="1" as="geometry">
            <Array as="points">
              <mxPoint x="1120" y="858" />
              <mxPoint x="1120" y="54" />
            </Array>
          </mxGeometry>
        </mxCell>
        <mxCell id="uSaKlAHMNxB41dpOqZy7-24" value="&lt;b&gt;HTTP2 (TLS&lt;/b&gt;&lt;b style=&quot;color: light-dark(rgb(0, 0, 0), rgb(255, 255, 255));&quot;&gt;)&lt;/b&gt;" style="edgeLabel;html=1;align=center;verticalAlign=middle;resizable=0;points=[];" parent="6tGMRK2spo7_5NMBX7Hg-54" vertex="1" connectable="0">
          <mxGeometry x="-0.5199" y="-1" relative="1" as="geometry">
            <mxPoint x="1" as="offset" />
          </mxGeometry>
        </mxCell>
        <mxCell id="6tGMRK2spo7_5NMBX7Hg-47" style="edgeStyle=orthogonalEdgeStyle;rounded=0;orthogonalLoop=1;jettySize=auto;html=1;exitX=0.5;exitY=1;exitDx=0;exitDy=0;exitPerimeter=0;entryX=0.522;entryY=-0.02;entryDx=0;entryDy=0;entryPerimeter=0;" parent="1" source="6tGMRK2spo7_5NMBX7Hg-16" target="5" edge="1">
          <mxGeometry relative="1" as="geometry">
            <mxPoint x="540.5" y="1050" as="targetPoint" />
          </mxGeometry>
        </mxCell>
        <mxCell id="uSaKlAHMNxB41dpOqZy7-8" value="&lt;b&gt;HTTP2&lt;/b&gt;&lt;b style=&quot;color: rgb(63, 63, 63); background-color: light-dark(#ffffff, var(--ge-dark-color, #121212));&quot;&gt;&amp;nbsp;(TLS)&lt;/b&gt;" style="edgeLabel;html=1;align=center;verticalAlign=middle;resizable=0;points=[];" parent="6tGMRK2spo7_5NMBX7Hg-47" vertex="1" connectable="0">
          <mxGeometry x="-0.422" y="-1" relative="1" as="geometry">
            <mxPoint x="-1" y="33" as="offset" />
          </mxGeometry>
        </mxCell>
        <mxCell id="6tGMRK2spo7_5NMBX7Hg-78" style="edgeStyle=orthogonalEdgeStyle;rounded=0;orthogonalLoop=1;jettySize=auto;html=1;exitX=0.995;exitY=0.63;exitDx=0;exitDy=0;exitPerimeter=0;entryX=0;entryY=0.767;entryDx=0;entryDy=0;entryPerimeter=0;" parent="1" source="6tGMRK2spo7_5NMBX7Hg-16" target="Cl7ddv3Pd11VFtuF2Uvl-23" edge="1">
          <mxGeometry relative="1" as="geometry">
            <mxPoint x="596.1700000000001" y="667.9999999999995" as="sourcePoint" />
            <mxPoint x="1450" y="680" as="targetPoint" />
            <Array as="points">
              <mxPoint x="360" y="880" />
              <mxPoint x="510" y="880" />
              <mxPoint x="510" y="1000" />
            </Array>
          </mxGeometry>
        </mxCell>
        <mxCell id="uSaKlAHMNxB41dpOqZy7-25" value="&lt;b&gt;PSQL (TLS&lt;/b&gt;&lt;b style=&quot;color: light-dark(rgb(0, 0, 0), rgb(255, 255, 255));&quot;&gt;)&lt;/b&gt;" style="edgeLabel;html=1;align=center;verticalAlign=middle;resizable=0;points=[];" parent="6tGMRK2spo7_5NMBX7Hg-78" vertex="1" connectable="0">
          <mxGeometry x="-0.0706" y="-2" relative="1" as="geometry">
            <mxPoint x="1" as="offset" />
          </mxGeometry>
        </mxCell>
        <mxCell id="6tGMRK2spo7_5NMBX7Hg-90" style="edgeStyle=orthogonalEdgeStyle;rounded=0;orthogonalLoop=1;jettySize=auto;html=1;entryX=0.005;entryY=0.63;entryDx=0;entryDy=0;entryPerimeter=0;" parent="1" source="6tGMRK2spo7_5NMBX7Hg-89" target="6tGMRK2spo7_5NMBX7Hg-16" edge="1">
          <mxGeometry relative="1" as="geometry">
            <Array as="points">
              <mxPoint x="220" y="871" />
            </Array>
          </mxGeometry>
        </mxCell>
        <mxCell id="uSaKlAHMNxB41dpOqZy7-13" value="&lt;b&gt;GRPC (HTTP2)&lt;/b&gt;" style="edgeLabel;html=1;align=center;verticalAlign=middle;resizable=0;points=[];" parent="6tGMRK2spo7_5NMBX7Hg-90" vertex="1" connectable="0">
          <mxGeometry x="0.36" relative="1" as="geometry">
            <mxPoint x="-1" as="offset" />
          </mxGeometry>
        </mxCell>
        <mxCell id="6tGMRK2spo7_5NMBX7Hg-94" style="edgeStyle=orthogonalEdgeStyle;rounded=0;orthogonalLoop=1;jettySize=auto;html=1;entryX=0;entryY=0.5;entryDx=0;entryDy=0;entryPerimeter=0;" parent="1" source="ivQptXM1TXExOYF5JyEC-2" target="I1dAC8_sid-gOvK0m6Eg-15" edge="1">
          <mxGeometry relative="1" as="geometry">
            <Array as="points">
              <mxPoint x="-190" y="516" />
              <mxPoint x="-190" y="516" />
            </Array>
          </mxGeometry>
        </mxCell>
        <mxCell id="uSaKlAHMNxB41dpOqZy7-4" value="&lt;b&gt;HTTP 3&lt;/b&gt;&lt;b style=&quot;color: rgb(63, 63, 63); scrollbar-color: rgb(226, 226, 226) rgb(251, 251, 251);&quot;&gt;,&amp;nbsp;&lt;/b&gt;&lt;b style=&quot;color: rgb(63, 63, 63); scrollbar-color: rgb(226, 226, 226) rgb(251, 251, 251);&quot;&gt;&amp;nbsp;HTTP2&lt;/b&gt;&lt;b&gt;&amp;nbsp;(TLS)&lt;/b&gt;" style="edgeLabel;html=1;align=center;verticalAlign=middle;resizable=0;points=[];" parent="6tGMRK2spo7_5NMBX7Hg-94" vertex="1" connectable="0">
          <mxGeometry x="-0.2139" y="-3" relative="1" as="geometry">
            <mxPoint x="1" as="offset" />
          </mxGeometry>
        </mxCell>
        <mxCell id="6tGMRK2spo7_5NMBX7Hg-95" style="edgeStyle=orthogonalEdgeStyle;rounded=0;orthogonalLoop=1;jettySize=auto;html=1;entryX=0.432;entryY=0.955;entryDx=0;entryDy=0;entryPerimeter=0;exitX=0.494;exitY=-0.017;exitDx=0;exitDy=0;exitPerimeter=0;" parent="1" source="ivQptXM1TXExOYF5JyEC-2" target="ivQptXM1TXExOYF5JyEC-15" edge="1">
          <mxGeometry relative="1" as="geometry">
            <Array as="points">
              <mxPoint x="-214" y="489.08" />
            </Array>
          </mxGeometry>
        </mxCell>
        <mxCell id="uSaKlAHMNxB41dpOqZy7-5" value="&lt;b&gt;HTTP 3, HTTP2&amp;nbsp;&lt;/b&gt;&lt;b style=&quot;color: light-dark(rgb(0, 0, 0), rgb(255, 255, 255));&quot;&gt;(TLS)&lt;/b&gt;" style="edgeLabel;html=1;align=center;verticalAlign=middle;resizable=0;points=[];" parent="6tGMRK2spo7_5NMBX7Hg-95" vertex="1" connectable="0">
          <mxGeometry x="-0.3035" y="1" relative="1" as="geometry">
            <mxPoint as="offset" />
          </mxGeometry>
        </mxCell>
        <mxCell id="6tGMRK2spo7_5NMBX7Hg-96" style="edgeStyle=orthogonalEdgeStyle;rounded=0;orthogonalLoop=1;jettySize=auto;html=1;exitX=0.5;exitY=0;exitDx=0;exitDy=0;exitPerimeter=0;" parent="1" source="6tGMRK2spo7_5NMBX7Hg-16" edge="1">
          <mxGeometry relative="1" as="geometry">
            <mxPoint x="540" y="530" as="targetPoint" />
            <Array as="points">
              <mxPoint x="335" y="730" />
              <mxPoint x="543" y="730" />
              <mxPoint x="543" y="531" />
              <mxPoint x="540" y="531" />
            </Array>
          </mxGeometry>
        </mxCell>
        <mxCell id="uSaKlAHMNxB41dpOqZy7-16" value="&lt;b&gt;GRPC (HTTP2)&lt;/b&gt;" style="edgeLabel;html=1;align=center;verticalAlign=middle;resizable=0;points=[];" parent="6tGMRK2spo7_5NMBX7Hg-96" vertex="1" connectable="0">
          <mxGeometry x="0.1134" y="2" relative="1" as="geometry">
            <mxPoint as="offset" />
          </mxGeometry>
        </mxCell>
        <mxCell id="Cl7ddv3Pd11VFtuF2Uvl-23" value="PG DB&amp;nbsp;&lt;span style=&quot;background-color: light-dark(rgb(255, 255, 255), rgb(18, 18, 18)); color: light-dark(rgb(0, 0, 0), rgb(255, 255, 255));&quot;&gt;User Service&lt;/span&gt;" style="html=1;verticalLabelPosition=bottom;align=center;labelBackgroundColor=#ffffff;verticalAlign=top;strokeWidth=2;strokeColor=#0080F0;shadow=0;dashed=0;shape=mxgraph.ios7.icons.data;" parent="1" vertex="1">
          <mxGeometry x="640" y="970" width="40" height="39.1" as="geometry" />
        </mxCell>
        <mxCell id="I1dAC8_sid-gOvK0m6Eg-16" style="edgeStyle=orthogonalEdgeStyle;rounded=0;orthogonalLoop=1;jettySize=auto;html=1;" parent="1" source="I1dAC8_sid-gOvK0m6Eg-15" target="6tGMRK2spo7_5NMBX7Hg-89" edge="1">
          <mxGeometry relative="1" as="geometry" />
        </mxCell>
        <mxCell id="uSaKlAHMNxB41dpOqZy7-9" value="&lt;b&gt;HTTP2&amp;nbsp;(TLS)&lt;/b&gt;" style="edgeLabel;html=1;align=center;verticalAlign=middle;resizable=0;points=[];" parent="I1dAC8_sid-gOvK0m6Eg-16" vertex="1" connectable="0">
          <mxGeometry x="0.0343" relative="1" as="geometry">
            <mxPoint x="-1" as="offset" />
          </mxGeometry>
        </mxCell>
        <mxCell id="11" style="edgeStyle=orthogonalEdgeStyle;html=1;" parent="1" source="I1dAC8_sid-gOvK0m6Eg-15" target="ivQptXM1TXExOYF5JyEC-11" edge="1">
          <mxGeometry relative="1" as="geometry">
            <Array as="points">
              <mxPoint x="-10" y="130" />
              <mxPoint x="683" y="130" />
            </Array>
          </mxGeometry>
        </mxCell>
        <mxCell id="12" value="Upload video" style="edgeLabel;html=1;align=center;verticalAlign=middle;resizable=0;points=[];" parent="11" vertex="1" connectable="0">
          <mxGeometry x="0.2772" relative="1" as="geometry">
            <mxPoint as="offset" />
          </mxGeometry>
        </mxCell>
        <mxCell id="I1dAC8_sid-gOvK0m6Eg-15" value="load balancer" style="outlineConnect=0;dashed=0;verticalLabelPosition=bottom;verticalAlign=top;align=center;html=1;shape=mxgraph.aws3.classic_load_balancer;fillColor=#F58534;gradientColor=none;" parent="1" vertex="1">
          <mxGeometry x="-30" y="489.83000000000004" width="56.06" height="52" as="geometry" />
        </mxCell>
        <mxCell id="uSaKlAHMNxB41dpOqZy7-1" style="edgeStyle=orthogonalEdgeStyle;rounded=0;orthogonalLoop=1;jettySize=auto;html=1;entryX=0.104;entryY=0.618;entryDx=0;entryDy=0;entryPerimeter=0;" parent="1" source="ivQptXM1TXExOYF5JyEC-6" target="ivQptXM1TXExOYF5JyEC-11" edge="1">
          <mxGeometry relative="1" as="geometry">
            <Array as="points">
              <mxPoint x="450" y="170" />
            </Array>
          </mxGeometry>
        </mxCell>
        <mxCell id="uSaKlAHMNxB41dpOqZy7-2" value="Request Link" style="edgeLabel;html=1;align=center;verticalAlign=middle;resizable=0;points=[];" parent="uSaKlAHMNxB41dpOqZy7-1" vertex="1" connectable="0">
          <mxGeometry x="0.2952" y="1" relative="1" as="geometry">
            <mxPoint x="-1" as="offset" />
          </mxGeometry>
        </mxCell>
        <mxCell id="uSaKlAHMNxB41dpOqZy7-27" value="&lt;b&gt;HTTP2 (TLS&lt;/b&gt;&lt;b style=&quot;color: light-dark(rgb(0, 0, 0), rgb(255, 255, 255));&quot;&gt;)&lt;/b&gt;" style="edgeLabel;html=1;align=center;verticalAlign=middle;resizable=0;points=[];" parent="uSaKlAHMNxB41dpOqZy7-1" vertex="1" connectable="0">
          <mxGeometry x="-0.3979" y="3" relative="1" as="geometry">
            <mxPoint as="offset" />
          </mxGeometry>
        </mxCell>
        <mxCell id="MMesEljA1Y2_ANh_13ck-1" value="RabbitMQ" style="verticalLabelPosition=bottom;html=1;verticalAlign=top;align=center;strokeColor=none;fillColor=#00BEF2;shape=mxgraph.azure.queue_generic;pointerEvents=1;" parent="1" vertex="1">
          <mxGeometry x="1030" y="410" width="70" height="30" as="geometry" />
        </mxCell>
        <mxCell id="MMesEljA1Y2_ANh_13ck-2" value="Send some&lt;div&gt;video meta&lt;/div&gt;&lt;div&gt;for save&lt;/div&gt;" style="edgeStyle=orthogonalEdgeStyle;rounded=0;orthogonalLoop=1;jettySize=auto;html=1;exitX=0;exitY=0.5;exitDx=0;exitDy=0;exitPerimeter=0;entryX=0.75;entryY=0;entryDx=0;entryDy=0;entryPerimeter=0;" parent="1" source="MMesEljA1Y2_ANh_13ck-1" target="6tGMRK2spo7_5NMBX7Hg-8" edge="1">
          <mxGeometry relative="1" as="geometry" />
        </mxCell>
        <mxCell id="MMesEljA1Y2_ANh_13ck-3" value="&lt;b&gt;TCP (TLS)&lt;/b&gt;" style="edgeLabel;html=1;align=center;verticalAlign=middle;resizable=0;points=[];" parent="MMesEljA1Y2_ANh_13ck-2" vertex="1" connectable="0">
          <mxGeometry x="-0.4196" y="-5" relative="1" as="geometry">
            <mxPoint x="1" as="offset" />
          </mxGeometry>
        </mxCell>
        <mxCell id="MMesEljA1Y2_ANh_13ck-5" value="External Notification Service" style="sketch=0;html=1;aspect=fixed;strokeColor=none;shadow=0;align=center;fillColor=#E7157B;verticalAlign=top;labelPosition=center;verticalLabelPosition=bottom;shape=mxgraph.gcp2.external_data_center" parent="1" vertex="1">
          <mxGeometry x="1286.12" y="590" width="77" height="100" as="geometry" />
        </mxCell>
        <mxCell id="MMesEljA1Y2_ANh_13ck-6" style="edgeStyle=orthogonalEdgeStyle;rounded=0;orthogonalLoop=1;jettySize=auto;html=1;exitX=1;exitY=0.51;exitDx=0;exitDy=0;exitPerimeter=0;entryX=0.019;entryY=0.539;entryDx=0;entryDy=0;entryPerimeter=0;" parent="1" source="MMesEljA1Y2_ANh_13ck-1" target="2" edge="1">
          <mxGeometry relative="1" as="geometry">
            <mxPoint x="961.0000000000005" y="740" as="targetPoint" />
          </mxGeometry>
        </mxCell>
        <mxCell id="MMesEljA1Y2_ANh_13ck-8" value="&lt;b&gt;TCP (TLS)&lt;/b&gt;" style="edgeLabel;html=1;align=center;verticalAlign=middle;resizable=0;points=[];" parent="MMesEljA1Y2_ANh_13ck-6" vertex="1" connectable="0">
          <mxGeometry x="-0.4289" y="3" relative="1" as="geometry">
            <mxPoint as="offset" />
          </mxGeometry>
        </mxCell>
        <mxCell id="MMesEljA1Y2_ANh_13ck-9" value="Send&lt;div&gt;&lt;span style=&quot;background-color: light-dark(#ffffff, var(--ge-dark-color, #121212)); color: light-dark(rgb(0, 0, 0), rgb(255, 255, 255));&quot;&gt;notification data&lt;/span&gt;&lt;/div&gt;" style="edgeLabel;html=1;align=center;verticalAlign=middle;resizable=0;points=[];" parent="MMesEljA1Y2_ANh_13ck-6" vertex="1" connectable="0">
          <mxGeometry x="-0.1879" y="2" relative="1" as="geometry">
            <mxPoint x="47" as="offset" />
          </mxGeometry>
        </mxCell>
        <mxCell id="2" value="&lt;font style=&quot;font-size: 12px;&quot;&gt;Notification Service&lt;/font&gt;" style="html=1;strokeWidth=1;shadow=0;dashed=0;shape=mxgraph.ios7.misc.notification;fillColor=#FF3B2F;strokeColor=none;buttonText=;strokeColor2=#222222;fontColor=#222222;fontSize=8;verticalLabelPosition=bottom;verticalAlign=top;align=center;sketch=0;" parent="1" vertex="1">
          <mxGeometry x="1300" y="395" width="49.24" height="45" as="geometry" />
        </mxCell>
        <mxCell id="6" value="" style="group;verticalAlign=bottom;" parent="1" vertex="1" connectable="0">
          <mxGeometry x="310" y="1050" width="80" height="73.7" as="geometry" />
        </mxCell>
        <mxCell id="5" value="Oauth 2" style="points=[];aspect=fixed;align=center;shadow=0;dashed=0;fillColor=#FF6A00;strokeColor=none;shape=mxgraph.alibaba_cloud.ahas_application_high_availability_service;verticalAlign=top;html=1;labelPosition=center;verticalLabelPosition=bottom;" parent="6" vertex="1">
          <mxGeometry width="63.819999999999965" height="73.69999999999996" as="geometry" />
        </mxCell>
        <mxCell id="4" value="" style="sketch=0;outlineConnect=0;fontColor=#232F3E;gradientColor=none;fillColor=#DD344C;strokeColor=none;dashed=0;verticalLabelPosition=bottom;verticalAlign=top;align=center;html=1;fontSize=12;fontStyle=0;aspect=fixed;pointerEvents=1;shape=mxgraph.aws4.addon;" parent="6" vertex="1">
          <mxGeometry x="3.3343779379504435" y="21.8499999999999" width="58.499999999999964" height="29.999999999999982" as="geometry" />
        </mxCell>
        <mxCell id="9Xz15T_-DiVHXTnTFpnh-12" value="Comment Processing&lt;div&gt;Service&lt;/div&gt;" style="image;aspect=fixed;html=1;points=[];align=center;fontSize=12;image=img/lib/azure2/general/Input_Output.svg;" parent="1" vertex="1">
          <mxGeometry x="370" y="610" width="40.73" height="35" as="geometry" />
        </mxCell>
        <mxCell id="9Xz15T_-DiVHXTnTFpnh-13" style="edgeStyle=orthogonalEdgeStyle;html=1;entryX=-0.068;entryY=0.503;entryDx=0;entryDy=0;entryPerimeter=0;" parent="1" source="6tGMRK2spo7_5NMBX7Hg-89" target="9Xz15T_-DiVHXTnTFpnh-12" edge="1">
          <mxGeometry relative="1" as="geometry">
            <Array as="points">
              <mxPoint x="260" y="519" />
              <mxPoint x="260" y="628" />
            </Array>
            <mxPoint x="410.73" y="578.5800000000004" as="targetPoint" />
          </mxGeometry>
        </mxCell>
        <mxCell id="9Xz15T_-DiVHXTnTFpnh-14" style="edgeStyle=none;html=1;entryX=0.25;entryY=1;entryDx=0;entryDy=0;entryPerimeter=0;" parent="1" source="9Xz15T_-DiVHXTnTFpnh-12" target="6tGMRK2spo7_5NMBX7Hg-8" edge="1">
          <mxGeometry relative="1" as="geometry" />
        </mxCell>
        <mxCell id="9Xz15T_-DiVHXTnTFpnh-16" style="edgeStyle=orthogonalEdgeStyle;html=1;exitX=1;exitY=0.5;exitDx=0;exitDy=0;exitPerimeter=0;entryX=0;entryY=0.5;entryDx=0;entryDy=0;" parent="1" source="6tGMRK2spo7_5NMBX7Hg-8" target="IOdmz906OIxuqgj1HhKf-15" edge="1">
          <mxGeometry relative="1" as="geometry">
            <Array as="points">
              <mxPoint x="610" y="510" />
              <mxPoint x="610" y="531" />
            </Array>
          </mxGeometry>
        </mxCell>
        <mxCell id="9Xz15T_-DiVHXTnTFpnh-17" value="CQL (TLS)" style="edgeLabel;html=1;align=center;verticalAlign=middle;resizable=0;points=[];fontStyle=1" parent="9Xz15T_-DiVHXTnTFpnh-16" vertex="1" connectable="0">
          <mxGeometry x="-0.1187" y="4" relative="1" as="geometry">
            <mxPoint x="33" y="4" as="offset" />
          </mxGeometry>
        </mxCell>
        <mxCell id="13" value="Clickhouse" style="points=[];aspect=fixed;html=1;align=center;shadow=0;dashed=0;fillColor=#FF6A00;strokeColor=none;shape=mxgraph.alibaba_cloud.clickhouse;verticalAlign=top;horizontal=1;labelPosition=center;verticalLabelPosition=bottom;" parent="1" vertex="1">
          <mxGeometry x="610" y="720" width="54.12" height="61.9" as="geometry" />
        </mxCell>
        <mxCell id="14" style="edgeStyle=orthogonalEdgeStyle;html=1;exitX=0.98;exitY=0.98;exitDx=0;exitDy=0;exitPerimeter=0;entryX=0.548;entryY=0.005;entryDx=0;entryDy=0;entryPerimeter=0;" parent="1" source="6tGMRK2spo7_5NMBX7Hg-8" target="13" edge="1">
          <mxGeometry relative="1" as="geometry" />
        </mxCell>
        <mxCell id="15" style="edgeStyle=orthogonalEdgeStyle;html=1;exitX=0.944;exitY=0.493;exitDx=0;exitDy=0;exitPerimeter=0;entryX=-0.008;entryY=0.581;entryDx=0;entryDy=0;entryPerimeter=0;" parent="1" source="6tGMRK2spo7_5NMBX7Hg-16" target="13" edge="1">
          <mxGeometry relative="1" as="geometry">
            <Array as="points">
              <mxPoint x="357" y="830" />
              <mxPoint x="540" y="830" />
              <mxPoint x="540" y="756" />
            </Array>
          </mxGeometry>
        </mxCell>
        <mxCell id="IOdmz906OIxuqgj1HhKf-15" value="Video Statistics&#xa;Cassandra" style="shape=image;verticalLabelPosition=bottom;labelBackgroundColor=default;verticalAlign=top;aspect=fixed;imageAspect=0;image=https://download.logo.wine/logo/Apache_Cassandra/Apache_Cassandra-Logo.wine.png;" parent="1" vertex="1">
          <mxGeometry x="778.83" y="490.77" width="120" height="80" as="geometry" />
        </mxCell>
        <mxCell id="6tGMRK2spo7_5NMBX7Hg-89" value="Api Gateway" style="sketch=0;outlineConnect=0;fontColor=#232F3E;gradientColor=none;fillColor=#E7157B;strokeColor=none;dashed=0;verticalLabelPosition=bottom;verticalAlign=top;align=center;html=1;fontSize=12;fontStyle=0;aspect=fixed;pointerEvents=1;shape=mxgraph.aws4.endpoint;" parent="1" vertex="1">
          <mxGeometry x="180" y="489.83000000000004" width="58.17" height="58.17" as="geometry" />
        </mxCell>
        <mxCell id="ivQptXM1TXExOYF5JyEC-6" value="Video Saver&lt;div&gt;Service&lt;/div&gt;" style="verticalLabelPosition=bottom;sketch=0;html=1;fillColor=#A153A0;strokeColor=#ffffff;verticalAlign=top;align=center;points=[[0,0.5,0],[0.125,0.25,0],[0.25,0,0],[0.5,0,0],[0.75,0,0],[0.875,0.25,0],[1,0.5,0],[0.875,0.75,0],[0.75,1,0],[0.5,1,0],[0.125,0.75,0]];pointerEvents=1;shape=mxgraph.cisco_safe.compositeIcon;bgIcon=ellipse;resIcon=mxgraph.cisco_safe.design.video_endpoint;container=0;" parent="1" vertex="1">
          <mxGeometry x="403" y="183" width="50" height="50" as="geometry" />
        </mxCell>
        <mxCell id="ivQptXM1TXExOYF5JyEC-22" value="Video Process&lt;div&gt;Service&lt;/div&gt;" style="fillColor=#28A8E0;verticalLabelPosition=bottom;sketch=0;html=1;strokeColor=#ffffff;verticalAlign=top;align=center;points=[[0.145,0.145,0],[0.5,0,0],[0.855,0.145,0],[1,0.5,0],[0.855,0.855,0],[0.5,1,0],[0.145,0.855,0],[0,0.5,0]];pointerEvents=1;shape=mxgraph.cisco_safe.compositeIcon;bgIcon=ellipse;resIcon=mxgraph.cisco_safe.capability.video;" parent="1" vertex="1">
          <mxGeometry x="817.66" y="228" width="42.34" height="43" as="geometry" />
        </mxCell>
        <mxCell id="6tGMRK2spo7_5NMBX7Hg-8" value="Video Statistics&lt;div&gt;Service&lt;/div&gt;" style="outlineConnect=0;dashed=0;verticalLabelPosition=bottom;verticalAlign=top;align=center;html=1;shape=mxgraph.aws3.corporate_data_center;fillColor=#7D7C7C;gradientColor=none;" parent="1" vertex="1">
          <mxGeometry x="521.8299999999999" y="490" width="46.33" height="40.82" as="geometry" />
        </mxCell>
        <mxCell id="6tGMRK2spo7_5NMBX7Hg-16" value="User Service" style="aspect=fixed;sketch=0;html=1;dashed=0;whitespace=wrap;verticalLabelPosition=bottom;verticalAlign=top;fillColor=#2875E2;strokeColor=#ffffff;points=[[0.005,0.63,0],[0.1,0.2,0],[0.9,0.2,0],[0.5,0,0],[0.995,0.63,0],[0.72,0.99,0],[0.5,1,0],[0.28,0.99,0]];shape=mxgraph.kubernetes.icon2;prIcon=user" parent="1" vertex="1">
          <mxGeometry x="310.00000000000006" y="841.1" width="50" height="48" as="geometry" />
        </mxCell>
        <mxCell id="nZ3Stfx8CDDAkoHToG9d-18" style="edgeStyle=orthogonalEdgeStyle;rounded=0;orthogonalLoop=1;jettySize=auto;html=1;entryX=0.512;entryY=-0.003;entryDx=0;entryDy=0;entryPerimeter=0;" edge="1" parent="1" source="2" target="MMesEljA1Y2_ANh_13ck-5">
          <mxGeometry relative="1" as="geometry" />
        </mxCell>
        <mxCell id="nZ3Stfx8CDDAkoHToG9d-19" value="PG DB Auth&lt;span style=&quot;background-color: light-dark(rgb(255, 255, 255), rgb(18, 18, 18)); color: light-dark(rgb(0, 0, 0), rgb(255, 255, 255));&quot;&gt;&amp;nbsp;Service&lt;/span&gt;" style="html=1;verticalLabelPosition=bottom;align=center;labelBackgroundColor=#ffffff;verticalAlign=top;strokeWidth=2;strokeColor=#0080F0;shadow=0;dashed=0;shape=mxgraph.ios7.icons.data;" vertex="1" parent="1">
          <mxGeometry x="640" y="1062.75" width="40" height="39.1" as="geometry" />
        </mxCell>
        <mxCell id="nZ3Stfx8CDDAkoHToG9d-20" style="edgeStyle=orthogonalEdgeStyle;rounded=0;orthogonalLoop=1;jettySize=auto;html=1;entryX=-0.048;entryY=0.579;entryDx=0;entryDy=0;entryPerimeter=0;" edge="1" parent="1" source="4" target="nZ3Stfx8CDDAkoHToG9d-19">
          <mxGeometry relative="1" as="geometry">
            <Array as="points">
              <mxPoint x="420" y="1087" />
              <mxPoint x="420" y="1085" />
            </Array>
          </mxGeometry>
        </mxCell>
      </root>
    </mxGraphModel>
  </diagram>
  <diagram id="iS1tkjeQbtZaUwktR7iV" name="CDN">
    <mxGraphModel dx="1966" dy="1187" grid="1" gridSize="10" guides="1" tooltips="1" connect="1" arrows="1" fold="1" page="1" pageScale="1" pageWidth="850" pageHeight="1100" math="0" shadow="0">
      <root>
        <mxCell id="0" />
        <mxCell id="1" parent="0" />
        <mxCell id="iCTV-ohjCDBZg16mNHIp-7" style="edgeStyle=none;html=1;exitX=1;exitY=0.5;exitDx=0;exitDy=0;entryX=0;entryY=0;entryDx=0;entryDy=0;" parent="1" source="iCTV-ohjCDBZg16mNHIp-1" target="iCTV-ohjCDBZg16mNHIp-2" edge="1">
          <mxGeometry relative="1" as="geometry" />
        </mxCell>
        <mxCell id="iCTV-ohjCDBZg16mNHIp-1" value="moscow&lt;div&gt;client&lt;/div&gt;" style="image;aspect=fixed;perimeter=ellipsePerimeter;html=1;align=center;shadow=0;dashed=0;spacingTop=3;image=img/lib/active_directory/mac_client.svg;" parent="1" vertex="1">
          <mxGeometry x="170" y="150" width="47" height="50" as="geometry" />
        </mxCell>
        <mxCell id="iCTV-ohjCDBZg16mNHIp-19" style="edgeStyle=none;html=1;exitX=1;exitY=0.5;exitDx=0;exitDy=0;entryX=0;entryY=0;entryDx=0;entryDy=0;" parent="1" source="iCTV-ohjCDBZg16mNHIp-2" target="iCTV-ohjCDBZg16mNHIp-13" edge="1">
          <mxGeometry relative="1" as="geometry" />
        </mxCell>
        <mxCell id="iCTV-ohjCDBZg16mNHIp-2" value="Local CDN node" style="image;aspect=fixed;perimeter=ellipsePerimeter;html=1;align=center;shadow=0;dashed=0;spacingTop=3;image=img/lib/active_directory/generic_node.svg;" parent="1" vertex="1">
          <mxGeometry x="310" y="216" width="50" height="49" as="geometry" />
        </mxCell>
        <mxCell id="iCTV-ohjCDBZg16mNHIp-8" style="edgeStyle=none;html=1;exitX=1;exitY=0.5;exitDx=0;exitDy=0;entryX=0;entryY=0.75;entryDx=0;entryDy=0;" parent="1" source="iCTV-ohjCDBZg16mNHIp-5" target="iCTV-ohjCDBZg16mNHIp-2" edge="1">
          <mxGeometry relative="1" as="geometry" />
        </mxCell>
        <mxCell id="iCTV-ohjCDBZg16mNHIp-5" value="moscow&lt;div&gt;client&lt;/div&gt;" style="image;aspect=fixed;perimeter=ellipsePerimeter;html=1;align=center;shadow=0;dashed=0;spacingTop=3;image=img/lib/active_directory/mac_client.svg;" parent="1" vertex="1">
          <mxGeometry x="170" y="260" width="47" height="50" as="geometry" />
        </mxCell>
        <mxCell id="iCTV-ohjCDBZg16mNHIp-10" style="edgeStyle=none;html=1;exitX=1;exitY=0.25;exitDx=0;exitDy=0;entryX=0;entryY=0.5;entryDx=0;entryDy=0;" parent="1" source="iCTV-ohjCDBZg16mNHIp-6" target="iCTV-ohjCDBZg16mNHIp-9" edge="1">
          <mxGeometry relative="1" as="geometry" />
        </mxCell>
        <mxCell id="iCTV-ohjCDBZg16mNHIp-6" value="spb&lt;div&gt;client&lt;/div&gt;" style="image;aspect=fixed;perimeter=ellipsePerimeter;html=1;align=center;shadow=0;dashed=0;spacingTop=3;image=img/lib/active_directory/mac_client.svg;" parent="1" vertex="1">
          <mxGeometry x="200" y="460" width="47" height="50" as="geometry" />
        </mxCell>
        <mxCell id="iCTV-ohjCDBZg16mNHIp-18" style="edgeStyle=none;html=1;exitX=1;exitY=0.25;exitDx=0;exitDy=0;entryX=0;entryY=0.75;entryDx=0;entryDy=0;" parent="1" source="iCTV-ohjCDBZg16mNHIp-9" target="iCTV-ohjCDBZg16mNHIp-13" edge="1">
          <mxGeometry relative="1" as="geometry" />
        </mxCell>
        <mxCell id="iCTV-ohjCDBZg16mNHIp-9" value="Local CDN node" style="image;aspect=fixed;perimeter=ellipsePerimeter;html=1;align=center;shadow=0;dashed=0;spacingTop=3;image=img/lib/active_directory/generic_node.svg;" parent="1" vertex="1">
          <mxGeometry x="310" y="410" width="50" height="49" as="geometry" />
        </mxCell>
        <mxCell id="iCTV-ohjCDBZg16mNHIp-16" style="edgeStyle=none;html=1;exitX=0.75;exitY=0;exitDx=0;exitDy=0;entryX=0;entryY=0.5;entryDx=0;entryDy=0;" parent="1" source="iCTV-ohjCDBZg16mNHIp-11" target="iCTV-ohjCDBZg16mNHIp-15" edge="1">
          <mxGeometry relative="1" as="geometry" />
        </mxCell>
        <mxCell id="iCTV-ohjCDBZg16mNHIp-11" value="vladivostok&lt;div&gt;client&lt;/div&gt;" style="image;aspect=fixed;perimeter=ellipsePerimeter;html=1;align=center;shadow=0;dashed=0;spacingTop=3;image=img/lib/active_directory/mac_client.svg;" parent="1" vertex="1">
          <mxGeometry x="200" y="770" width="47" height="50" as="geometry" />
        </mxCell>
        <mxCell id="iCTV-ohjCDBZg16mNHIp-21" style="edgeStyle=none;html=1;exitX=1;exitY=0.5;exitDx=0;exitDy=0;" parent="1" source="iCTV-ohjCDBZg16mNHIp-13" target="iCTV-ohjCDBZg16mNHIp-20" edge="1">
          <mxGeometry relative="1" as="geometry" />
        </mxCell>
        <mxCell id="iCTV-ohjCDBZg16mNHIp-13" value="Central Russia&lt;div&gt;CDN node&lt;/div&gt;" style="image;aspect=fixed;perimeter=ellipsePerimeter;html=1;align=center;shadow=0;dashed=0;spacingTop=3;image=img/lib/active_directory/generic_node.svg;" parent="1" vertex="1">
          <mxGeometry x="470" y="300" width="50" height="49" as="geometry" />
        </mxCell>
        <mxCell id="iCTV-ohjCDBZg16mNHIp-22" style="edgeStyle=none;html=1;exitX=1;exitY=0;exitDx=0;exitDy=0;" parent="1" source="iCTV-ohjCDBZg16mNHIp-14" target="iCTV-ohjCDBZg16mNHIp-20" edge="1">
          <mxGeometry relative="1" as="geometry" />
        </mxCell>
        <mxCell id="iCTV-ohjCDBZg16mNHIp-14" value="East Russia&lt;div&gt;CDN node&lt;/div&gt;" style="image;aspect=fixed;perimeter=ellipsePerimeter;html=1;align=center;shadow=0;dashed=0;spacingTop=3;image=img/lib/active_directory/generic_node.svg;" parent="1" vertex="1">
          <mxGeometry x="470" y="590" width="50" height="49" as="geometry" />
        </mxCell>
        <mxCell id="iCTV-ohjCDBZg16mNHIp-17" style="edgeStyle=none;html=1;exitX=1;exitY=0;exitDx=0;exitDy=0;entryX=0;entryY=0.25;entryDx=0;entryDy=0;" parent="1" source="iCTV-ohjCDBZg16mNHIp-15" target="iCTV-ohjCDBZg16mNHIp-14" edge="1">
          <mxGeometry relative="1" as="geometry" />
        </mxCell>
        <mxCell id="iCTV-ohjCDBZg16mNHIp-15" value="Local CDN node" style="image;aspect=fixed;perimeter=ellipsePerimeter;html=1;align=center;shadow=0;dashed=0;spacingTop=3;image=img/lib/active_directory/generic_node.svg;" parent="1" vertex="1">
          <mxGeometry x="320" y="690" width="50" height="49" as="geometry" />
        </mxCell>
        <mxCell id="iCTV-ohjCDBZg16mNHIp-20" value="MAIN S3" style="sketch=0;outlineConnect=0;fontColor=#232F3E;gradientColor=none;fillColor=#7AA116;strokeColor=none;dashed=0;verticalLabelPosition=bottom;verticalAlign=top;align=center;html=1;fontSize=12;fontStyle=0;aspect=fixed;pointerEvents=1;shape=mxgraph.aws4.bucket;" parent="1" vertex="1">
          <mxGeometry x="628" y="360.5" width="142.31" height="148" as="geometry" />
        </mxCell>
      </root>
    </mxGraphModel>
  </diagram>
</mxfile>
